<svg xmlns="http://www.w3.org/2000/svg" width="16" height="16" viewBox="0 0 16 16">
    <g fill="#9198AF" fill-rule="nonzero">
        <path d="M.15 14.838l-.143.596a.283.283 0 0 0-.006.057L0 15.503a.284.284 0 0 0 .027.115c.014.03.032.06.056.084a.288.288 0 0 0 .268.076l.596-.142-.798-.798zM15.034.752a2.575 2.575 0 0 0-3.637 0L1.093 11.055l-.012.016-.016.022a.278.278 0 0 0-.036.068l-.008.022-.004.008-.712 2.994L1.6 15.481l2.994-.713c.008-.002.015-.006.022-.009a.264.264 0 0 0 .086-.046l.02-.016.008-.005L15.034 4.388a2.574 2.574 0 0 0 0-3.636zM4.902 13.712l.101-.91 6.394-6.393a.285.285 0 1 0-.404-.404l-6.394 6.394-1.364.151.152-1.364L9.78 4.793a.285.285 0 1 0-.404-.404l-6.394 6.393-.91.101 7.91-7.909 2.828 2.829-7.909 7.909zm8.313-8.313L10.387 2.57l.404-.404 2.828 2.829-.404.404zm.808-.808l-2.828-2.829.404-.404 2.829 2.828-.405.405z"/>
    </g>
</svg>
