<svg xmlns="http://www.w3.org/2000/svg" width="147" height="32" viewBox="0 0 147 32">
    <g fill="#FA7268" fill-rule="nonzero">
        <path d="M20.628 0h5.666c.522 0 .946.42.946.938v25.437c0 2.784-2.04 5.095-4.72 5.545-.722.053-1.352.08-1.892.08H4.808a.942.942 0 0 1-.946-.938V27.53h-.639C1.446 27.53 0 26.096 0 24.335s1.446-3.194 3.223-3.194h.639v1.875h-.639c-.734 0-1.331.592-1.331 1.32 0 .727.597 1.318 1.331 1.318h.639v-2.638h3.903c.522 0 .946-.42.946-.937a.942.942 0 0 0-.946-.938H3.862v-1.947h-.639C1.446 19.194 0 17.761 0 16s1.446-3.194 3.223-3.194h.639v1.875h-.639c-.734 0-1.331.592-1.331 1.319s.597 1.32 1.331 1.32h.639v-2.64h3.903c.522 0 .946-.419.946-.937a.942.942 0 0 0-.946-.937H3.862v-1.947h-.639C1.446 10.859 0 9.426 0 7.665S1.446 4.47 3.223 4.47h.639v1.875h-.639c-.734 0-1.331.591-1.331 1.319 0 .727.597 1.319 1.331 1.319h.639V6.346h3.903c.522 0 .946-.42.946-.938a.942.942 0 0 0-.946-.937H3.982C4.519 1.918 6.802 0 9.538 0h11.09zM16.15 17.333h-2.695l.18 1.979v4.402c0 2.016.442 3.457 1.326 4.322.884.865 2.142 1.297 3.773 1.297 3.4 0 5.1-1.85 5.1-5.55v-6.45H21.31v6.347c0 1.21-.196 2.123-.588 2.737-.392.614-1.055.92-1.988.92-.921 0-1.582-.318-1.983-.954-.4-.637-.6-1.538-.6-2.703v-6.347zM44.798 28.208c-6.261 0-10.075-3.605-10.075-10.573V3.733h2.59v13.798c0 5.754 2.728 8.389 7.485 8.389 4.793 0 7.521-2.635 7.521-8.39V3.734h2.519v13.902c0 6.968-3.778 10.573-10.04 10.573zM71.594 9.627c5.248 0 9.166 3.744 9.166 9.256 0 5.512-3.918 9.29-9.166 9.29-3.043 0-5.597-1.317-7.101-3.778V28h-2.379V2.277h2.484v10.955c1.54-2.357 4.058-3.605 6.996-3.605zm-.175 16.362c3.883 0 6.857-2.842 6.857-7.106 0-4.264-2.974-7.107-6.857-7.107-3.918 0-6.856 2.843-6.856 7.107s2.938 7.106 6.856 7.106zm21.934 2.184c-5.387 0-9.375-3.882-9.375-9.29 0-5.408 3.988-9.256 9.375-9.256 5.387 0 9.34 3.848 9.34 9.256s-3.953 9.29-9.34 9.29zm0-2.184c3.918 0 6.821-2.842 6.821-7.106 0-4.264-2.903-7.107-6.821-7.107-3.918 0-6.856 2.843-6.856 7.107s2.938 7.106 6.856 7.106zm21.934 2.184c-5.388 0-9.376-3.882-9.376-9.29 0-5.408 3.988-9.256 9.376-9.256 5.387 0 9.34 3.848 9.34 9.256s-3.953 9.29-9.34 9.29zm0-2.184c3.918 0 6.821-2.842 6.821-7.106 0-4.264-2.903-7.107-6.821-7.107-3.918 0-6.857 2.843-6.857 7.107s2.939 7.106 6.857 7.106zM143.937 28l-7.416-9.152-4.338 3.952V28h-2.484V2.277h2.484v17.438l10.984-9.95h3.079l-7.871 7.454L146.98 28h-3.043z"/>
    </g>
</svg>
